{"asset":{"version":"2.0","generator":"Blockbench 5.1.4 glTF exporter"},"scenes":[{"nodes":[5,7,9],"name":"blockbench_export"}],"scene":0,"nodes":[{"translation":[0,6.666666666666667,0],"name":"Head"},{"translation":[0,6.666666666666667,0],"name":"Body"},{"translation":[2.7777777777777777,5.555555555555555,0],"name":"Right Arm"},{"translation":[-2.7777777777777777,5.555555555555555,0],"name":"Left Arm"},{"name":"Waist","children":[0,1,2,3]},{"translation":[0,6.666666666666667,0],"name":"Waist","mesh":0,"children":[4],"skin":0},{"name":"Right Leg"},{"translation":[1.0555555555555556,6.666666666666667,0],"name":"Right Leg","mesh":1,"children":[6],"skin":1},{"name":"Left Leg"},{"translation":[-1.0555555555555556,6.666666666666667,0],"name":"Left Leg","mesh":2,"children":[8],"skin":2}],"bufferViews":[{"buffer":0,"byteOffset":0,"byteLength":2304,"target":34962,"byteStride":12},{"buffer":0,"byteOffset":2304,"byteLength":2304,"target":34962,"byteStride":12},{"buffer":0,"byteOffset":4608,"byteLength":1536,"target":34962,"byteStride":8},{"buffer":0,"byteOffset":6144,"byteLength":1536,"target":34962,"byteStride":8},{"buffer":0,"byteOffset":7680,"byteLength":3072,"target":34962,"byteStride":16},{"buffer":0,"byteOffset":10752,"byteLength":576,"target":34963},{"buffer":0,"byteOffset":11328,"byteLength":576,"target":34962,"byteStride":12},{"buffer":0,"byteOffset":11904,"byteLength":576,"target":34962,"byteStride":12},{"buffer":0,"byteOffset":12480,"byteLength":384,"target":34962,"byteStride":8},{"buffer":0,"byteOffset":12864,"byteLength":384,"target":34962,"byteStride":8},{"buffer":0,"byteOffset":13248,"byteLength":768,"target":34962,"byteStride":16},{"buffer":0,"byteOffset":14016,"byteLength":144,"target":34963},{"buffer":0,"byteOffset":14160,"byteLength":576,"target":34962,"byteStride":12},{"buffer":0,"byteOffset":14736,"byteLength":576,"target":34962,"byteStride":12},{"buffer":0,"byteOffset":15312,"byteLength":384,"target":34962,"byteStride":8},{"buffer":0,"byteOffset":15696,"byteLength":384,"target":34962,"byteStride":8},{"buffer":0,"byteOffset":16080,"byteLength":768,"target":34962,"byteStride":16},{"buffer":0,"byteOffset":16848,"byteLength":144,"target":34963},{"buffer":0,"byteOffset":16992,"byteLength":320},{"buffer":0,"byteOffset":17312,"byteLength":64},{"buffer":0,"byteOffset":17376,"byteLength":64},{"buffer":0,"byteOffset":17440,"byteLength":12},{"buffer":0,"byteOffset":17452,"byteLength":48},{"buffer":0,"byteOffset":17500,"byteLength":12},{"buffer":0,"byteOffset":17512,"byteLength":48},{"buffer":0,"byteOffset":17560,"byteLength":12},{"buffer":0,"byteOffset":17572,"byteLength":48},{"buffer":0,"byteOffset":17620,"byteLength":12},{"buffer":0,"byteOffset":17632,"byteLength":48},{"buffer":0,"byteOffset":17680,"byteLength":12},{"buffer":0,"byteOffset":17692,"byteLength":36},{"buffer":0,"byteOffset":17728,"byteLength":12},{"buffer":0,"byteOffset":17740,"byteLength":36},{"buffer":0,"byteOffset":17776,"byteLength":4},{"buffer":0,"byteOffset":17780,"byteLength":16},{"buffer":0,"byteOffset":17796,"byteLength":4},{"buffer":0,"byteOffset":17800,"byteLength":12},{"buffer":0,"byteOffset":17812,"byteLength":4},{"buffer":0,"byteOffset":17816,"byteLength":16},{"buffer":0,"byteOffset":17832,"byteLength":4},{"buffer":0,"byteOffset":17836,"byteLength":12},{"buffer":0,"byteOffset":17848,"byteLength":4},{"buffer":0,"byteOffset":17852,"byteLength":16},{"buffer":0,"byteOffset":17868,"byteLength":4},{"buffer":0,"byteOffset":17872,"byteLength":12},{"buffer":0,"byteOffset":17884,"byteLength":4},{"buffer":0,"byteOffset":17888,"byteLength":16},{"buffer":0,"byteOffset":17904,"byteLength":4},{"buffer":0,"byteOffset":17908,"byteLength":12},{"buffer":0,"byteOffset":17920,"byteLength":4},{"buffer":0,"byteOffset":17924,"byteLength":16},{"buffer":0,"byteOffset":17940,"byteLength":4},{"buffer":0,"byteOffset":17944,"byteLength":12},{"buffer":0,"byteOffset":17956,"byteLength":4},{"buffer":0,"byteOffset":17960,"byteLength":16},{"buffer":0,"byteOffset":17976,"byteLength":4},{"buffer":0,"byteOffset":17980,"byteLength":12},{"buffer":0,"byteOffset":17992,"byteLength":8},{"buffer":0,"byteOffset":18000,"byteLength":32},{"buffer":0,"byteOffset":18032,"byteLength":8},{"buffer":0,"byteOffset":18040,"byteLength":24},{"buffer":0,"byteOffset":18064,"byteLength":8},{"buffer":0,"byteOffset":18072,"byteLength":32},{"buffer":0,"byteOffset":18104,"byteLength":8},{"buffer":0,"byteOffset":18112,"byteLength":24},{"buffer":0,"byteOffset":18136,"byteLength":12},{"buffer":0,"byteOffset":18148,"byteLength":48},{"buffer":0,"byteOffset":18196,"byteLength":8},{"buffer":0,"byteOffset":18204,"byteLength":24},{"buffer":0,"byteOffset":18228,"byteLength":12},{"buffer":0,"byteOffset":18240,"byteLength":48},{"buffer":0,"byteOffset":18288,"byteLength":8},{"buffer":0,"byteOffset":18296,"byteLength":24},{"buffer":0,"byteOffset":18320,"byteLength":12},{"buffer":0,"byteOffset":18332,"byteLength":48},{"buffer":0,"byteOffset":18380,"byteLength":12},{"buffer":0,"byteOffset":18392,"byteLength":36},{"buffer":0,"byteOffset":18428,"byteLength":12},{"buffer":0,"byteOffset":18440,"byteLength":48},{"buffer":0,"byteOffset":18488,"byteLength":12},{"buffer":0,"byteOffset":18500,"byteLength":36},{"buffer":0,"byteOffset":18536,"byteLength":4},{"buffer":0,"byteOffset":18540,"byteLength":16},{"buffer":0,"byteOffset":18556,"byteLength":4},{"buffer":0,"byteOffset":18560,"byteLength":12},{"buffer":0,"byteOffset":18572,"byteLength":4},{"buffer":0,"byteOffset":18576,"byteLength":16},{"buffer":0,"byteOffset":18592,"byteLength":4},{"buffer":0,"byteOffset":18596,"byteLength":16},{"buffer":0,"byteOffset":18612,"byteLength":4},{"buffer":0,"byteOffset":18616,"byteLength":16},{"buffer":0,"byteOffset":18632,"byteLength":4},{"buffer":0,"byteOffset":18636,"byteLength":16},{"buffer":0,"byteOffset":18652,"byteLength":4},{"buffer":0,"byteOffset":18656,"byteLength":12},{"buffer":0,"byteOffset":18668,"byteLength":4},{"buffer":0,"byteOffset":18672,"byteLength":16},{"buffer":0,"byteOffset":18688,"byteLength":4},{"buffer":0,"byteOffset":18692,"byteLength":12},{"buffer":0,"byteOffset":18704,"byteLength":12},{"buffer":0,"byteOffset":18716,"byteLength":48},{"buffer":0,"byteOffset":18764,"byteLength":12},{"buffer":0,"byteOffset":18776,"byteLength":36},{"buffer":0,"byteOffset":18812,"byteLength":12},{"buffer":0,"byteOffset":18824,"byteLength":48},{"buffer":0,"byteOffset":18872,"byteLength":20},{"buffer":0,"byteOffset":18892,"byteLength":80},{"buffer":0,"byteOffset":18972,"byteLength":12},{"buffer":0,"byteOffset":18984,"byteLength":48},{"buffer":0,"byteOffset":19032,"byteLength":16},{"buffer":0,"byteOffset":19048,"byteLength":48},{"buffer":0,"byteOffset":19096,"byteLength":12},{"buffer":0,"byteOffset":19108,"byteLength":48},{"buffer":0,"byteOffset":19156,"byteLength":12},{"buffer":0,"byteOffset":19168,"byteLength":36},{"buffer":0,"byteOffset":19204,"byteLength":12},{"buffer":0,"byteOffset":19216,"byteLength":48},{"buffer":0,"byteOffset":19264,"byteLength":16},{"buffer":0,"byteOffset":19280,"byteLength":48},{"buffer":0,"byteOffset":19328,"byteLength":12},{"buffer":0,"byteOffset":19340,"byteLength":48},{"buffer":0,"byteOffset":19388,"byteLength":16},{"buffer":0,"byteOffset":19404,"byteLength":48},{"buffer":0,"byteOffset":19452,"byteLength":20},{"buffer":0,"byteOffset":19472,"byteLength":60},{"buffer":0,"byteOffset":19532,"byteLength":20},{"buffer":0,"byteOffset":19552,"byteLength":60},{"buffer":0,"byteOffset":19612,"byteLength":40},{"buffer":0,"byteOffset":19652,"byteLength":160},{"buffer":0,"byteOffset":19812,"byteLength":20},{"buffer":0,"byteOffset":19832,"byteLength":60},{"buffer":0,"byteOffset":19892,"byteLength":40},{"buffer":0,"byteOffset":19932,"byteLength":160},{"buffer":0,"byteOffset":20092,"byteLength":20},{"buffer":0,"byteOffset":20112,"byteLength":60},{"buffer":0,"byteOffset":20172,"byteLength":40},{"buffer":0,"byteOffset":20212,"byteLength":160},{"buffer":0,"byteOffset":20372,"byteLength":40},{"buffer":0,"byteOffset":20412,"byteLength":120},{"buffer":0,"byteOffset":20532,"byteLength":40},{"buffer":0,"byteOffset":20572,"byteLength":160},{"buffer":0,"byteOffset":20732,"byteLength":36},{"buffer":0,"byteOffset":20768,"byteLength":108}],"buffers":[{"byteLength":20876,"uri":"data:application/octet-stream;base64,"}],"accessors":[{"bufferView":0,"componentType":5126,"count":192,"max":[4.583333492279053,11.38888931274414,2.5],"min":[-4.583333492279053,-0.1388888955116272,-2.5],"type":"VEC3"},{"bufferView":1,"componentType":5126,"count":192,"max":[1,1,1],"min":[-1,-1,-1],"type":"VEC3"},{"bufferView":2,"componentType":5126,"count":192,"max":[0.999755859375,0.999755859375],"min":[0.000244140625,0.000244140625],"type":"VEC2"},{"bufferView":3,"componentType":5123,"count":192,"max":[0,4,0,0],"min":[0,1,0,0],"type":"VEC4"},{"bufferView":4,"componentType":5126,"count":192,"max":[0,1,0,0],"min":[0,1,0,0],"type":"VEC4"},{"bufferView":5,"componentType":5123,"count":288,"max":[191],"min":[0],"type":"SCALAR"},{"bufferView":6,"componentType":5126,"count":48,"max":[1.25,0.1388888955116272,1.25],"min":[-1.25,-6.80555534362793,-1.25],"type":"VEC3"},{"bufferView":7,"componentType":5126,"count":48,"max":[1,1,1],"min":[-1,-1,-1],"type":"VEC3"},{"bufferView":8,"componentType":5126,"count":48,"max":[0.249755859375,0.749755859375],"min":[0.000244140625,0.250244140625],"type":"VEC2"},{"bufferView":9,"componentType":5123,"count":48,"max":[0,0,0,0],"min":[0,0,0,0],"type":"VEC4"},{"bufferView":10,"componentType":5126,"count":48,"max":[0,1,0,0],"min":[0,1,0,0],"type":"VEC4"},{"bufferView":11,"componentType":5123,"count":72,"max":[47],"min":[0],"type":"SCALAR"},{"bufferView":12,"componentType":5126,"count":48,"max":[1.25,0.1388888955116272,1.25],"min":[-1.25,-6.80555534362793,-1.25],"type":"VEC3"},{"bufferView":13,"componentType":5126,"count":48,"max":[1,1,1],"min":[-1,-1,-1],"type":"VEC3"},{"bufferView":14,"componentType":5126,"count":48,"max":[0.499755859375,0.999755859375],"min":[0.000244140625,0.750244140625],"type":"VEC2"},{"bufferView":15,"componentType":5123,"count":48,"max":[0,0,0,0],"min":[0,0,0,0],"type":"VEC4"},{"bufferView":16,"componentType":5126,"count":48,"max":[0,1,0,0],"min":[0,1,0,0],"type":"VEC4"},{"bufferView":17,"componentType":5123,"count":72,"max":[47],"min":[0],"type":"SCALAR"},{"bufferView":18,"componentType":5126,"count":5,"max":[1,0,0,0,0,1,0,0,0,0,1,0,2.777777671813965,0,0,1],"min":[1,0,0,0,0,1,0,0,0,0,1,0,-2.777777671813965,-6.666666507720947,0,1],"type":"MAT4"},{"bufferView":19,"componentType":5126,"count":1,"max":[1,0,0,0,0,1,0,0,0,0,1,0,0,0,0,1],"min":[1,0,0,0,0,1,0,0,0,0,1,0,0,0,0,1],"type":"MAT4"},{"bufferView":20,"componentType":5126,"count":1,"max":[1,0,0,0,0,1,0,0,0,0,1,0,0,0,0,1],"min":[1,0,0,0,0,1,0,0,0,0,1,0,0,0,0,1],"type":"MAT4"},{"bufferView":21,"componentType":5126,"count":3,"max":[2],"min":[0],"type":"SCALAR"},{"bufferView":22,"componentType":5126,"count":3,"max":[0.258819043636322,0,0,0.9659258127212524],"min":[-0.258819043636322,0,0,0.9659258127212524],"type":"VEC4"},{"bufferView":23,"componentType":5126,"count":3,"max":[2],"min":[0],"type":"SCALAR"},{"bufferView":24,"componentType":5126,"count":3,"max":[0.258819043636322,0,0,0.9659258127212524],"min":[-0.258819043636322,0,0,0.9659258127212524],"type":"VEC4"},{"bufferView":25,"componentType":5126,"count":3,"max":[2],"min":[0],"type":"SCALAR"},{"bufferView":26,"componentType":5126,"count":3,"max":[0.258819043636322,0,0,0.9659258127212524],"min":[-0.258819043636322,0,0,0.9659258127212524],"type":"VEC4"},{"bufferView":27,"componentType":5126,"count":3,"max":[2],"min":[0],"type":"SCALAR"},{"bufferView":28,"componentType":5126,"count":3,"max":[0.258819043636322,0,0,0.9659258127212524],"min":[-0.258819043636322,0,0,0.9659258127212524],"type":"VEC4"},{"bufferView":29,"componentType":5126,"count":3,"max":[1],"min":[0],"type":"SCALAR"},{"bufferView":30,"componentType":5126,"count":3,"max":[2.777777671813965,5.55555534362793,0],"min":[2.777777671813965,5,0],"type":"VEC3"},{"bufferView":31,"componentType":5126,"count":3,"max":[1],"min":[0],"type":"SCALAR"},{"bufferView":32,"componentType":5126,"count":3,"max":[-2.777777671813965,5.55555534362793,0],"min":[-2.777777671813965,5,0],"type":"VEC3"},{"bufferView":33,"componentType":5126,"count":1,"max":[0],"min":[0],"type":"SCALAR"},{"bufferView":34,"componentType":5126,"count":1,"max":[0.02181488461792469,0,0,0.9997619986534119],"min":[0.02181488461792469,0,0,0.9997619986534119],"type":"VEC4"},{"bufferView":35,"componentType":5126,"count":1,"max":[0],"min":[0],"type":"SCALAR"},{"bufferView":36,"componentType":5126,"count":1,"max":[0,3.8888888359069824,0],"min":[0,3.8888888359069824,0],"type":"VEC3"},{"bufferView":37,"componentType":5126,"count":1,"max":[0],"min":[0],"type":"SCALAR"},{"bufferView":38,"componentType":5126,"count":1,"max":[-0.13052618503570557,0,0,0.9914448857307434],"min":[-0.13052618503570557,0,0,0.9914448857307434],"type":"VEC4"},{"bufferView":39,"componentType":5126,"count":1,"max":[0],"min":[0],"type":"SCALAR"},{"bufferView":40,"componentType":5126,"count":1,"max":[0,4.44444465637207,0],"min":[0,4.44444465637207,0],"type":"VEC3"},{"bufferView":41,"componentType":5126,"count":1,"max":[0],"min":[0],"type":"SCALAR"},{"bufferView":42,"componentType":5126,"count":1,"max":[0.08715574443340302,0,0,0.9961947202682495],"min":[0.08715574443340302,0,0,0.9961947202682495],"type":"VEC4"},{"bufferView":43,"componentType":5126,"count":1,"max":[0],"min":[0],"type":"SCALAR"},{"bufferView":44,"componentType":5126,"count":1,"max":[2.777777671813965,3.3333332538604736,0],"min":[2.777777671813965,3.3333332538604736,0],"type":"VEC3"},{"bufferView":45,"componentType":5126,"count":1,"max":[0],"min":[0],"type":"SCALAR"},{"bufferView":46,"componentType":5126,"count":1,"max":[0.10886687785387039,0,0,0.9940563440322876],"min":[0.10886687785387039,0,0,0.9940563440322876],"type":"VEC4"},{"bufferView":47,"componentType":5126,"count":1,"max":[0],"min":[0],"type":"SCALAR"},{"bufferView":48,"componentType":5126,"count":1,"max":[-2.777777671813965,3.3333332538604736,0],"min":[-2.777777671813965,3.3333332538604736,0],"type":"VEC3"},{"bufferView":49,"componentType":5126,"count":1,"max":[0],"min":[0],"type":"SCALAR"},{"bufferView":50,"componentType":5126,"count":1,"max":[-0.13052618503570557,0,0,0.9914448857307434],"min":[-0.13052618503570557,0,0,0.9914448857307434],"type":"VEC4"},{"bufferView":51,"componentType":5126,"count":1,"max":[0],"min":[0],"type":"SCALAR"},{"bufferView":52,"componentType":5126,"count":1,"max":[1.0555555820465088,6.666666507720947,-1.1111111640930176],"min":[1.0555555820465088,6.666666507720947,-1.1111111640930176],"type":"VEC3"},{"bufferView":53,"componentType":5126,"count":1,"max":[0],"min":[0],"type":"SCALAR"},{"bufferView":54,"componentType":5126,"count":1,"max":[-0.02181488461792469,0,0,0.9997619986534119],"min":[-0.02181488461792469,0,0,0.9997619986534119],"type":"VEC4"},{"bufferView":55,"componentType":5126,"count":1,"max":[0],"min":[0],"type":"SCALAR"},{"bufferView":56,"componentType":5126,"count":1,"max":[-1.0555555820465088,6.666666507720947,-1.6666666269302368],"min":[-1.0555555820465088,6.666666507720947,-1.6666666269302368],"type":"VEC3"},{"bufferView":57,"componentType":5126,"count":2,"max":[1],"min":[0],"type":"SCALAR"},{"bufferView":58,"componentType":5126,"count":2,"max":[0.02181488461792469,0,0,0.9997619986534119],"min":[0.02181488461792469,0,0,0.9997619986534119],"type":"VEC4"},{"bufferView":59,"componentType":5126,"count":2,"max":[1],"min":[0],"type":"SCALAR"},{"bufferView":60,"componentType":5126,"count":2,"max":[0,3.8888888359069824,0],"min":[0,3.8888888359069824,0],"type":"VEC3"},{"bufferView":61,"componentType":5126,"count":2,"max":[1],"min":[0],"type":"SCALAR"},{"bufferView":62,"componentType":5126,"count":2,"max":[-0.13052618503570557,0,0,0.9914448857307434],"min":[-0.13052618503570557,0,0,0.9914448857307434],"type":"VEC4"},{"bufferView":63,"componentType":5126,"count":2,"max":[1],"min":[0],"type":"SCALAR"},{"bufferView":64,"componentType":5126,"count":2,"max":[0,4.44444465637207,0],"min":[0,4.44444465637207,0],"type":"VEC3"},{"bufferView":65,"componentType":5126,"count":3,"max":[1],"min":[0],"type":"SCALAR"},{"bufferView":66,"componentType":5126,"count":3,"max":[0.08715574443340302,0,0,0.9997619986534119],"min":[0.02181488461792469,0,0,0.9961947202682495],"type":"VEC4"},{"bufferView":67,"componentType":5126,"count":2,"max":[1],"min":[0],"type":"SCALAR"},{"bufferView":68,"componentType":5126,"count":2,"max":[2.777777671813965,3.3333332538604736,0],"min":[2.777777671813965,3.3333332538604736,0],"type":"VEC3"},{"bufferView":69,"componentType":5126,"count":3,"max":[1],"min":[0],"type":"SCALAR"},{"bufferView":70,"componentType":5126,"count":3,"max":[0.237685889005661,0,0,0.9940563440322876],"min":[0.10886687785387039,0,0,0.9713420867919922],"type":"VEC4"},{"bufferView":71,"componentType":5126,"count":2,"max":[1],"min":[0],"type":"SCALAR"},{"bufferView":72,"componentType":5126,"count":2,"max":[-2.777777671813965,3.3333332538604736,0],"min":[-2.777777671813965,3.3333332538604736,0],"type":"VEC3"},{"bufferView":73,"componentType":5126,"count":3,"max":[1],"min":[0],"type":"SCALAR"},{"bufferView":74,"componentType":5126,"count":3,"max":[0.08715574443340302,0,0,0.9961947202682495],"min":[-0.13052618503570557,0,0,0.9914448857307434],"type":"VEC4"},{"bufferView":75,"componentType":5126,"count":3,"max":[1],"min":[0],"type":"SCALAR"},{"bufferView":76,"componentType":5126,"count":3,"max":[1.0555555820465088,6.666666507720947,-1.1111111640930176],"min":[1.0555555820465088,6.666666507720947,-1.6666666269302368],"type":"VEC3"},{"bufferView":77,"componentType":5126,"count":3,"max":[1],"min":[0],"type":"SCALAR"},{"bufferView":78,"componentType":5126,"count":3,"max":[-0.02181488461792469,0,0,0.9997619986534119],"min":[-0.10886687785387039,0,0,0.9940563440322876],"type":"VEC4"},{"bufferView":79,"componentType":5126,"count":3,"max":[1],"min":[0],"type":"SCALAR"},{"bufferView":80,"componentType":5126,"count":3,"max":[-1.0555555820465088,6.666666507720947,-1.1111111640930176],"min":[-1.0555555820465088,6.666666507720947,-1.6666666269302368],"type":"VEC3"},{"bufferView":81,"componentType":5126,"count":1,"max":[0],"min":[0],"type":"SCALAR"},{"bufferView":82,"componentType":5126,"count":1,"max":[-0.7071067690849304,0,0,0.7071067690849304],"min":[-0.7071067690849304,0,0,0.7071067690849304],"type":"VEC4"},{"bufferView":83,"componentType":5126,"count":1,"max":[0],"min":[0],"type":"SCALAR"},{"bufferView":84,"componentType":5126,"count":1,"max":[0,1.1111111640930176,0],"min":[0,1.1111111640930176,0],"type":"VEC3"},{"bufferView":85,"componentType":5126,"count":1,"max":[0],"min":[0],"type":"SCALAR"},{"bufferView":86,"componentType":5126,"count":1,"max":[0.4617486000061035,0,0,0.8870108127593994],"min":[0.4617486000061035,0,0,0.8870108127593994],"type":"VEC4"},{"bufferView":87,"componentType":5126,"count":1,"max":[0],"min":[0],"type":"SCALAR"},{"bufferView":88,"componentType":5126,"count":1,"max":[0.9959576725959778,-0.08713436126708984,0.0019014712888747454,0.0217313040047884],"min":[0.9959576725959778,-0.08713436126708984,0.0019014712888747454,0.0217313040047884],"type":"VEC4"},{"bufferView":89,"componentType":5126,"count":1,"max":[0],"min":[0],"type":"SCALAR"},{"bufferView":90,"componentType":5126,"count":1,"max":[0.9881263971328735,0.15208666026592255,-0.0033183267805725336,0.021559813991189003],"min":[0.9881263971328735,0.15208666026592255,-0.0033183267805725336,0.021559813991189003],"type":"VEC4"},{"bufferView":91,"componentType":5126,"count":1,"max":[0],"min":[0],"type":"SCALAR"},{"bufferView":92,"componentType":5126,"count":1,"max":[-0.7055928111076355,0.04624699801206589,0.04624699801206589,0.7055928111076355],"min":[-0.7055928111076355,0.04624699801206589,0.04624699801206589,0.7055928111076355],"type":"VEC4"},{"bufferView":93,"componentType":5126,"count":1,"max":[0],"min":[0],"type":"SCALAR"},{"bufferView":94,"componentType":5126,"count":1,"max":[1.0555555820465088,1.1111111640930176,0],"min":[1.0555555820465088,1.1111111640930176,0],"type":"VEC3"},{"bufferView":95,"componentType":5126,"count":1,"max":[0],"min":[0],"type":"SCALAR"},{"bufferView":96,"componentType":5126,"count":1,"max":[-0.7055928111076355,-0.04624699801206589,-0.04624699801206589,0.7055928111076355],"min":[-0.7055928111076355,-0.04624699801206589,-0.04624699801206589,0.7055928111076355],"type":"VEC4"},{"bufferView":97,"componentType":5126,"count":1,"max":[0],"min":[0],"type":"SCALAR"},{"bufferView":98,"componentType":5126,"count":1,"max":[-1.0555555820465088,1.1111111640930176,0],"min":[-1.0555555820465088,1.1111111640930176,0],"type":"VEC3"},{"bufferView":99,"componentType":5126,"count":3,"max":[2],"min":[0],"type":"SCALAR"},{"bufferView":100,"componentType":5126,"count":3,"max":[-0.7071067690849304,0,0,0.7071067690849304],"min":[-0.7071067690849304,0,0,0.7071067690849304],"type":"VEC4"},{"bufferView":101,"componentType":5126,"count":3,"max":[2],"min":[0],"type":"SCALAR"},{"bufferView":102,"componentType":5126,"count":3,"max":[0,1.1111111640930176,0],"min":[0,1.1111111640930176,0],"type":"VEC3"},{"bufferView":103,"componentType":5126,"count":3,"max":[2],"min":[0],"type":"SCALAR"},{"bufferView":104,"componentType":5126,"count":3,"max":[0.4617486000061035,0,0,0.8870108127593994],"min":[0.4617486000061035,0,0,0.8870108127593994],"type":"VEC4"},{"bufferView":105,"componentType":5126,"count":5,"max":[2],"min":[0],"type":"SCALAR"},{"bufferView":106,"componentType":5126,"count":5,"max":[-0.06540312618017197,0,0,0.9978589415550232],"min":[-0.1736481785774231,0,0,0.9848077297210693],"type":"VEC4"},{"bufferView":107,"componentType":5126,"count":3,"max":[2],"min":[0],"type":"SCALAR"},{"bufferView":108,"componentType":5126,"count":3,"max":[0.9959576725959778,-0.08713436126708984,0.0019014712888747454,0.0217313040047884],"min":[0.9959576725959778,-0.08713436126708984,0.0019014712888747454,0.0217313040047884],"type":"VEC4"},{"bufferView":109,"componentType":5126,"count":4,"max":[2],"min":[0],"type":"SCALAR"},{"bufferView":110,"componentType":5126,"count":4,"max":[2.777777671813965,6.666666507720947,0],"min":[2.777777671813965,5.55555534362793,0],"type":"VEC3"},{"bufferView":111,"componentType":5126,"count":3,"max":[2],"min":[0],"type":"SCALAR"},{"bufferView":112,"componentType":5126,"count":3,"max":[0.9881263971328735,0.15208666026592255,-0.0033183267805725336,0.021559813991189003],"min":[0.9881263971328735,0.15208666026592255,-0.0033183267805725336,0.021559813991189003],"type":"VEC4"},{"bufferView":113,"componentType":5126,"count":3,"max":[2],"min":[0],"type":"SCALAR"},{"bufferView":114,"componentType":5126,"count":3,"max":[-2.777777671813965,6.666666507720947,0],"min":[-2.777777671813965,5.55555534362793,0],"type":"VEC3"},{"bufferView":115,"componentType":5126,"count":3,"max":[2],"min":[0],"type":"SCALAR"},{"bufferView":116,"componentType":5126,"count":3,"max":[-0.7055928111076355,0.04624699801206589,0.04624699801206589,0.7055928111076355],"min":[-0.7055928111076355,0.04624699801206589,0.04624699801206589,0.7055928111076355],"type":"VEC4"},{"bufferView":117,"componentType":5126,"count":4,"max":[2],"min":[0],"type":"SCALAR"},{"bufferView":118,"componentType":5126,"count":4,"max":[1.0555555820465088,1.1111111640930176,0],"min":[1.0555555820465088,1.1111111640930176,-2.222222328186035],"type":"VEC3"},{"bufferView":119,"componentType":5126,"count":3,"max":[2],"min":[0],"type":"SCALAR"},{"bufferView":120,"componentType":5126,"count":3,"max":[-0.7055928111076355,-0.04624699801206589,-0.04624699801206589,0.7055928111076355],"min":[-0.7055928111076355,-0.04624699801206589,-0.04624699801206589,0.7055928111076355],"type":"VEC4"},{"bufferView":121,"componentType":5126,"count":4,"max":[2],"min":[0],"type":"SCALAR"},{"bufferView":122,"componentType":5126,"count":4,"max":[-1.0555555820465088,1.1111111640930176,0],"min":[-1.0555555820465088,1.1111111640930176,-1.6666666269302368],"type":"VEC3"},{"bufferView":123,"componentType":5126,"count":5,"max":[2.25],"min":[0.25],"type":"SCALAR"},{"bufferView":124,"componentType":5126,"count":5,"max":[0,6.666666507720947,0],"min":[0,5.55555534362793,0],"type":"VEC3"},{"bufferView":125,"componentType":5126,"count":5,"max":[2.25],"min":[0.25],"type":"SCALAR"},{"bufferView":126,"componentType":5126,"count":5,"max":[0,6.666666507720947,0],"min":[0,5.55555534362793,0],"type":"VEC3"},{"bufferView":127,"componentType":5126,"count":10,"max":[2.25],"min":[0],"type":"SCALAR"},{"bufferView":128,"componentType":5126,"count":10,"max":[0,0,0.36243805289268494,1],"min":[0,0,-0.02181488461792469,0.9320078492164612],"type":"VEC4"},{"bufferView":129,"componentType":5126,"count":5,"max":[2.25],"min":[0],"type":"SCALAR"},{"bufferView":130,"componentType":5126,"count":5,"max":[2.777777671813965,5.55555534362793,0],"min":[2.777777671813965,4.44444465637207,0],"type":"VEC3"},{"bufferView":131,"componentType":5126,"count":10,"max":[2.25],"min":[0],"type":"SCALAR"},{"bufferView":132,"componentType":5126,"count":10,"max":[0,0,0.06540312618017197,1],"min":[0,0,-0.4226182699203491,0.9063078165054321],"type":"VEC4"},{"bufferView":133,"componentType":5126,"count":5,"max":[2.25],"min":[0],"type":"SCALAR"},{"bufferView":134,"componentType":5126,"count":5,"max":[-2.777777671813965,5.55555534362793,0],"min":[-2.777777671813965,4.44444465637207,0],"type":"VEC3"},{"bufferView":135,"componentType":5126,"count":10,"max":[2.25],"min":[0],"type":"SCALAR"},{"bufferView":136,"componentType":5126,"count":10,"max":[0.04361938685178757,0,0,1],"min":[-0.19509032368659973,0,0,0.9807852506637573],"type":"VEC4"},{"bufferView":137,"componentType":5126,"count":10,"max":[2.25],"min":[0],"type":"SCALAR"},{"bufferView":138,"componentType":5126,"count":10,"max":[1.0555555820465088,9.44444465637207,0],"min":[1.0555555820465088,6.666666507720947,-1.1111111640930176],"type":"VEC3"},{"bufferView":139,"componentType":5126,"count":10,"max":[2.25],"min":[0],"type":"SCALAR"},{"bufferView":140,"componentType":5126,"count":10,"max":[0.2164396196603775,0,0,1],"min":[-0.10886687785387039,0,0,0.9762960076332092],"type":"VEC4"},{"bufferView":141,"componentType":5126,"count":9,"max":[2.25],"min":[0],"type":"SCALAR"},{"bufferView":142,"componentType":5126,"count":9,"max":[-1.0555555820465088,10,0],"min":[-1.0555555820465088,6.666666507720947,-1.6666666269302368],"type":"VEC3"}],"materials":[{"pbrMetallicRoughness":{"baseColorFactor":[1,1,1,1],"metallicFactor":0,"roughnessFactor":1},"alphaMode":"MASK","alphaCutoff":0.05,"doubleSided":true}],"meshes":[{"primitives":[{"mode":4,"attributes":{"POSITION":0,"NORMAL":1,"TEXCOORD_0":2,"JOINTS_0":3,"WEIGHTS_0":4},"indices":5,"material":0}]},{"primitives":[{"mode":4,"attributes":{"POSITION":6,"NORMAL":7,"TEXCOORD_0":8,"JOINTS_0":9,"WEIGHTS_0":10},"indices":11,"material":0}]},{"primitives":[{"mode":4,"attributes":{"POSITION":12,"NORMAL":13,"TEXCOORD_0":14,"JOINTS_0":15,"WEIGHTS_0":16},"indices":17,"material":0}]}],"skins":[{"inverseBindMatrices":18,"joints":[4,0,1,2,3],"skeleton":4},{"inverseBindMatrices":19,"joints":[6],"skeleton":6},{"inverseBindMatrices":20,"joints":[8],"skeleton":8}],"animations":[{"name":"walk","samplers":[{"input":21,"output":22,"interpolation":"LINEAR"},{"input":23,"output":24,"interpolation":"LINEAR"},{"input":25,"output":26,"interpolation":"LINEAR"},{"input":27,"output":28,"interpolation":"LINEAR"}],"channels":[{"sampler":0,"target":{"node":2,"path":"rotation"}},{"sampler":1,"target":{"node":3,"path":"rotation"}},{"sampler":2,"target":{"node":6,"path":"rotation"}},{"sampler":3,"target":{"node":8,"path":"rotation"}}]},{"name":"idle","samplers":[{"input":29,"output":30,"interpolation":"LINEAR"},{"input":31,"output":32,"interpolation":"LINEAR"}],"channels":[{"sampler":0,"target":{"node":2,"path":"translation"}},{"sampler":1,"target":{"node":3,"path":"translation"}}]},{"name":"crouch","samplers":[{"input":33,"output":34,"interpolation":"LINEAR"},{"input":35,"output":36,"interpolation":"LINEAR"},{"input":37,"output":38,"interpolation":"LINEAR"},{"input":39,"output":40,"interpolation":"LINEAR"},{"input":41,"output":42,"interpolation":"LINEAR"},{"input":43,"output":44,"interpolation":"LINEAR"},{"input":45,"output":46,"interpolation":"LINEAR"},{"input":47,"output":48,"interpolation":"LINEAR"},{"input":49,"output":50,"interpolation":"LINEAR"},{"input":51,"output":52,"interpolation":"LINEAR"},{"input":53,"output":54,"interpolation":"LINEAR"},{"input":55,"output":56,"interpolation":"LINEAR"}],"channels":[{"sampler":0,"target":{"node":0,"path":"rotation"}},{"sampler":1,"target":{"node":0,"path":"translation"}},{"sampler":2,"target":{"node":1,"path":"rotation"}},{"sampler":3,"target":{"node":1,"path":"translation"}},{"sampler":4,"target":{"node":2,"path":"rotation"}},{"sampler":5,"target":{"node":2,"path":"translation"}},{"sampler":6,"target":{"node":3,"path":"rotation"}},{"sampler":7,"target":{"node":3,"path":"translation"}},{"sampler":8,"target":{"node":6,"path":"rotation"}},{"sampler":9,"target":{"node":6,"path":"translation"}},{"sampler":10,"target":{"node":8,"path":"rotation"}},{"sampler":11,"target":{"node":8,"path":"translation"}}]},{"name":"crouch_walk","samplers":[{"input":57,"output":58,"interpolation":"LINEAR"},{"input":59,"output":60,"interpolation":"LINEAR"},{"input":61,"output":62,"interpolation":"LINEAR"},{"input":63,"output":64,"interpolation":"LINEAR"},{"input":65,"output":66,"interpolation":"LINEAR"},{"input":67,"output":68,"interpolation":"LINEAR"},{"input":69,"output":70,"interpolation":"LINEAR"},{"input":71,"output":72,"interpolation":"LINEAR"},{"input":73,"output":74,"interpolation":"LINEAR"},{"input":75,"output":76,"interpolation":"LINEAR"},{"input":77,"output":78,"interpolation":"LINEAR"},{"input":79,"output":80,"interpolation":"LINEAR"}],"channels":[{"sampler":0,"target":{"node":0,"path":"rotation"}},{"sampler":1,"target":{"node":0,"path":"translation"}},{"sampler":2,"target":{"node":1,"path":"rotation"}},{"sampler":3,"target":{"node":1,"path":"translation"}},{"sampler":4,"target":{"node":2,"path":"rotation"}},{"sampler":5,"target":{"node":2,"path":"translation"}},{"sampler":6,"target":{"node":3,"path":"rotation"}},{"sampler":7,"target":{"node":3,"path":"translation"}},{"sampler":8,"target":{"node":6,"path":"rotation"}},{"sampler":9,"target":{"node":6,"path":"translation"}},{"sampler":10,"target":{"node":8,"path":"rotation"}},{"sampler":11,"target":{"node":8,"path":"translation"}}]},{"name":"prone","samplers":[{"input":81,"output":82,"interpolation":"LINEAR"},{"input":83,"output":84,"interpolation":"LINEAR"},{"input":85,"output":86,"interpolation":"LINEAR"},{"input":87,"output":88,"interpolation":"LINEAR"},{"input":89,"output":90,"interpolation":"LINEAR"},{"input":91,"output":92,"interpolation":"LINEAR"},{"input":93,"output":94,"interpolation":"LINEAR"},{"input":95,"output":96,"interpolation":"LINEAR"},{"input":97,"output":98,"interpolation":"LINEAR"}],"channels":[{"sampler":0,"target":{"node":4,"path":"rotation"}},{"sampler":1,"target":{"node":4,"path":"translation"}},{"sampler":2,"target":{"node":0,"path":"rotation"}},{"sampler":3,"target":{"node":2,"path":"rotation"}},{"sampler":4,"target":{"node":3,"path":"rotation"}},{"sampler":5,"target":{"node":6,"path":"rotation"}},{"sampler":6,"target":{"node":6,"path":"translation"}},{"sampler":7,"target":{"node":8,"path":"rotation"}},{"sampler":8,"target":{"node":8,"path":"translation"}}]},{"name":"crawl","samplers":[{"input":99,"output":100,"interpolation":"LINEAR"},{"input":101,"output":102,"interpolation":"LINEAR"},{"input":103,"output":104,"interpolation":"LINEAR"},{"input":105,"output":106,"interpolation":"LINEAR"},{"input":107,"output":108,"interpolation":"LINEAR"},{"input":109,"output":110,"interpolation":"LINEAR"},{"input":111,"output":112,"interpolation":"LINEAR"},{"input":113,"output":114,"interpolation":"LINEAR"},{"input":115,"output":116,"interpolation":"LINEAR"},{"input":117,"output":118,"interpolation":"LINEAR"},{"input":119,"output":120,"interpolation":"LINEAR"},{"input":121,"output":122,"interpolation":"LINEAR"}],"channels":[{"sampler":0,"target":{"node":4,"path":"rotation"}},{"sampler":1,"target":{"node":4,"path":"translation"}},{"sampler":2,"target":{"node":0,"path":"rotation"}},{"sampler":3,"target":{"node":1,"path":"rotation"}},{"sampler":4,"target":{"node":2,"path":"rotation"}},{"sampler":5,"target":{"node":2,"path":"translation"}},{"sampler":6,"target":{"node":3,"path":"rotation"}},{"sampler":7,"target":{"node":3,"path":"translation"}},{"sampler":8,"target":{"node":6,"path":"rotation"}},{"sampler":9,"target":{"node":6,"path":"translation"}},{"sampler":10,"target":{"node":8,"path":"rotation"}},{"sampler":11,"target":{"node":8,"path":"translation"}}]},{"name":"jump","samplers":[{"input":123,"output":124,"interpolation":"LINEAR"},{"input":125,"output":126,"interpolation":"LINEAR"},{"input":127,"output":128,"interpolation":"LINEAR"},{"input":129,"output":130,"interpolation":"LINEAR"},{"input":131,"output":132,"interpolation":"LINEAR"},{"input":133,"output":134,"interpolation":"LINEAR"},{"input":135,"output":136,"interpolation":"LINEAR"},{"input":137,"output":138,"interpolation":"LINEAR"},{"input":139,"output":140,"interpolation":"LINEAR"},{"input":141,"output":142,"interpolation":"LINEAR"}],"channels":[{"sampler":0,"target":{"node":0,"path":"translation"}},{"sampler":1,"target":{"node":1,"path":"translation"}},{"sampler":2,"target":{"node":2,"path":"rotation"}},{"sampler":3,"target":{"node":2,"path":"translation"}},{"sampler":4,"target":{"node":3,"path":"rotation"}},{"sampler":5,"target":{"node":3,"path":"translation"}},{"sampler":6,"target":{"node":6,"path":"rotation"}},{"sampler":7,"target":{"node":6,"path":"translation"}},{"sampler":8,"target":{"node":8,"path":"rotation"}},{"sampler":9,"target":{"node":8,"path":"translation"}}]}]}